<svg id="Слой_1" data-name="Слой 1" xmlns="http://www.w3.org/2000/svg" viewBox="0 0 177.31 202.24"><defs><style>.cls-1{fill:#0fb492;}.cls-2{fill:#303a45;}.cls-3{fill:#1c6556;}</style></defs><title>ll1w</title><path class="cls-1" d="M207.34,280.41l-59,35.59a30,30,0,0,1-30.86.09L59.59,281.57a30,30,0,0,1-14.64-25.95l.42-72.12A30,30,0,0,1,59.86,158l59-35.59a30,30,0,0,1,30.86-.09l57.94,34.52a30,30,0,0,1,14.64,25.95l-.42,72.12A30,30,0,0,1,207.34,280.41Z" transform="translate(-44.95 -118.08)"/><polygon class="cls-2" points="0.12 139.28 27.3 87.94 32.48 92.69 46.75 68.8 59.67 90.91 86.31 50.25 94.54 64.5 102.23 61.23 122.8 97.14 127.8 89.72 133.17 89.72 141.75 72.81 176.8 139.28 0.12 139.28"/><polygon class="cls-3" points="21.49 126.52 16.75 120.89 26.5 97.14 24.08 116.43 26.5 112.14 28.37 112.14 28.37 121.92 21.49 126.52"/><polygon class="cls-3" points="52.69 124.15 65.12 129.05 71.56 122.81 76.12 127.27 61.63 96.25 59.13 101.89 46.34 84.38 42.95 108.27 47.77 106.71 52.69 124.15"/><polygon class="cls-3" points="74.6 108.72 83.94 97.14 89.09 90.76 105.36 116.14 97.13 81.12 89.98 76.52 86.67 57.67 68.07 91.06 72.1 92.54 72.1 99.67 75.58 94.77 74.6 108.72"/><polygon class="cls-3" points="114.39 106.71 120.29 112.87 119.67 98.18 103.48 68.8 103.48 79.48 112.33 93.28 114.39 106.71"/><polygon class="cls-3" points="130.93 100.11 134.48 111.83 149.8 128.3 168.58 129.05 152.84 103.67 149.75 93.43 142.65 79.63 141.48 100.26 130.93 100.11"/></svg>